<svg xmlns="http://www.w3.org/2000/svg" width="61.144" height="61.15" viewBox="0 0 611.438 611.5">
  <defs>
    <style>
      .cls-1 {
        fill: #305b64;
        fill-rule: evenodd;
      }
    </style>
  </defs>
  <path id="Forma_1" data-name="Forma 1" class="cls-1" d="M9.176,51.55C-2.3,40.075-2.3,20.976,9.176,9.1a30.475,30.475,0,0,1,42.449,0L306.349,264.252,561.5,9.1a29.951,29.951,0,0,1,42.022,0c11.876,11.877,11.876,31,0,42.45L348.8,306.3,603.523,561.452A29.865,29.865,0,1,1,561.5,603.9L306.349,348.75,51.626,603.9a30.475,30.475,0,0,1-42.449,0c-11.475-11.876-11.475-31,0-42.449L263.9,306.3Z" transform="translate(-0.563 -0.5)"/>
</svg>
