<svg xmlns="http://www.w3.org/2000/svg" width="45" height="52.44" viewBox="0 0 375 437">
  <defs>
    <style>
      .cls-1 {
        fill: #305b64;
        fill-rule: evenodd;
      }
    </style>
  </defs>
  <path id="Forma_1" data-name="Forma 1" class="cls-1" d="M339.02,0H71.561A36.1,36.1,0,0,0,35.581,36.017V62.829H51.572a19.609,19.609,0,0,1,0,39.218H35.581V130.86H51.572a19.609,19.609,0,0,1,0,39.218H35.581v28.813H51.572a19.609,19.609,0,0,1,0,39.218H35.581V199.291H19.589a19.609,19.609,0,0,0,0,39.218H35.581v28.413H51.572a19.609,19.609,0,0,1,0,39.218H35.581V267.322H19.589a19.609,19.609,0,0,0,0,39.218H35.581v28.413H51.572a19.609,19.609,0,0,1,0,39.218H35.581V335.753H19.589a19.609,19.609,0,0,0,0,39.218H35.581v26.012A36.1,36.1,0,0,0,71.561,437H339.02A36.1,36.1,0,0,0,375,400.983V36.017A36.1,36.1,0,0,0,339.02,0ZM294.643,305.74c-58.769,32.414-164.313-65.23-172.708-125.658-3.6-24.411,36.38-76.835,51.173-44.02L188.3,170.078c7.2,18.808-14.793,24.011-14.393,34.015,0.4,6.8,16.791,26.813,20.789,30.814,8,8.8,32.783,28.413,45.976,31.615,6.4,1.6,11.594-6.4,14.392-9.605,11.994-12.8,12.394-16.807,23.588-10.8l33.982,18.408C325.427,272.925,307.436,298.536,294.643,305.74ZM19.589,62.829a19.609,19.609,0,0,0,0,39.218H35.581V62.829H19.589Zm0,68.031a19.609,19.609,0,0,0,0,39.218H35.581V130.86H19.589Z"/>
</svg>
