<?xml version="1.0" encoding="utf-8"?>
<!-- Generator: Adobe Illustrator 23.0.0, SVG Export Plug-In . SVG Version: 6.00 Build 0)  -->
<svg version="1.1" id="Layer_1" xmlns="http://www.w3.org/2000/svg" xmlns:xlink="http://www.w3.org/1999/xlink" x="0px" y="0px"
	 viewBox="0 0 51 51" style="enable-background:new 0 0 51 51;" xml:space="preserve">
<style type="text/css">
	.st0{display:none;fill:#305B64;}
	.st1{fill:#305B64;}
</style>
<ellipse class="st0" cx="25.5" cy="25.5" rx="25" ry="24.8"/>
<path class="st1" d="M19.4,43.4c1.2,0.2,1.6-0.5,1.6-1.1c0-0.5,0-2,0-3.9c-6.4,1.4-7.8-3.1-7.8-3.1c-1.1-2.6-2.6-3.3-2.6-3.3
	c-2.1-1.4,0.2-1.4,0.2-1.4c2.3,0.2,3.5,2.4,3.5,2.4c2.1,3.5,5.4,2.5,6.7,1.9c0.2-1.5,0.8-2.5,1.5-3.1c-5.1-0.6-10.6-2.5-10.6-11.3
	c0-2.5,0.9-4.5,2.4-6.1c-0.3-0.6-1-2.9,0.2-6c0,0,1.9-0.6,6.4,2.3c1.9-0.5,3.8-0.8,5.8-0.8c2,0,3.9,0.3,5.8,0.8
	c4.4-3,6.3-2.3,6.3-2.3c1.2,3.1,0.5,5.5,0.2,6c1.5,1.6,2.4,3.6,2.4,6.1c0,8.8-5.4,10.7-10.6,11.3c0.8,0.7,1.6,2.1,1.6,4.2
	c0,3.1,0,5.5,0,6.3c0,0.6,0.4,1.3,1.6,1.1"/>
</svg>
