<?xml version="1.0" encoding="utf-8"?>
<!-- Generator: Adobe Illustrator 23.0.0, SVG Export Plug-In . SVG Version: 6.00 Build 0)  -->
<svg version="1.1" id="Layer_1" xmlns="http://www.w3.org/2000/svg" xmlns:xlink="http://www.w3.org/1999/xlink" x="0px" y="0px"
	 viewBox="0 0 51 51" style="enable-background:new 0 0 51 51;" xml:space="preserve">
<style type="text/css">
	.st0{fill:#305B64;}
	.st1{fill:#FFFFFF;}
</style>
<ellipse class="st0" cx="25.5" cy="25.5" rx="25" ry="24.8"/>
<path class="st1" d="M20.2,40.5c1,0.2,1.4-0.4,1.4-0.9c0-0.4,0-1.7,0-3.3c-5.5,1.2-6.7-2.7-6.7-2.7c-0.9-2.2-2.2-2.8-2.2-2.8
	c-1.8-1.2,0.2-1.2,0.2-1.2c2,0.2,3,2.1,3,2.1c1.8,3,4.6,2.1,5.7,1.6c0.2-1.3,0.7-2.1,1.3-2.7c-4.4-0.5-9.1-2.1-9.1-9.7
	c0-2.1,0.8-3.9,2.1-5.2c-0.3-0.5-0.9-2.5,0.2-5.1c0,0,1.6-0.5,5.5,2c1.6-0.4,3.3-0.7,5-0.7s3.3,0.3,5,0.7c3.8-2.6,5.4-2,5.4-2
	c1,2.7,0.4,4.7,0.2,5.1c1.3,1.4,2.1,3.1,2.1,5.2c0,7.5-4.6,9.2-9.1,9.7c0.7,0.6,1.4,1.8,1.4,3.6c0,2.7,0,4.7,0,5.4
	c0,0.5,0.3,1.1,1.4,0.9"/>
</svg>
