<?xml version="1.0" encoding="utf-8"?>
<!-- Generator: Adobe Illustrator 23.0.0, SVG Export Plug-In . SVG Version: 6.00 Build 0)  -->
<svg version="1.1" id="Layer_1" xmlns="http://www.w3.org/2000/svg" xmlns:xlink="http://www.w3.org/1999/xlink" x="0px" y="0px"
	 viewBox="0 0 384 287.8" style="enable-background:new 0 0 384 287.8;" xml:space="preserve">
<style type="text/css">
	.st0{fill:#305B64;}
	.st1{fill:#FFFFFF;}
</style>
<title>email (1)</title>
<rect x="-0.4" y="28.5" class="st0" width="384.5" height="149.4"/>
<path class="st1" d="M0,251.9v-198c1.3,0.7,2.6,1.4,3.9,2.2l153.7,102.5c21.9,14.6,46.9,14.6,68.9,0L379.2,56.7
	c1.4-0.9,2.9-1.8,4.7-3c0,1.2,0.1,1.9,0.1,2.7c0,63.3,0,126.5-0.1,189.8c0,4.4-0.7,8.7-2.1,12.9c-5.7,18-21.4,28.7-41.6,28.7H59.8
	c-6,0-12,0.1-18,0C23,287.3,7.8,276.2,2,258.9C1.3,256.6,0.7,254.2,0,251.9z"/>
<path class="st1" d="M0.5,28C5.4,12.2,21,0.8,38.7,0c1.1,0,2.3,0,3.4,0c100.1,0,200.2,0,300.4,0c18.1,0,31.5,7.7,39.9,23.7
	c0.7,1.3,1.1,2.7,1.7,4.2c-1.2,0.8-2.2,1.6-3.3,2.3c-55.7,36.7-111.4,73.5-167.1,110.2c-13.6,8.9-29.3,8.9-43-0.1L3.8,30.3
	C2.8,29.6,1.8,28.9,0.5,28z"/>
</svg>
