<svg xmlns="http://www.w3.org/2000/svg" viewBox="0 0 75.02 60.81"><defs><style>.cls-1{fill:#305b64;fill-rule:evenodd;}</style></defs><title>graphics</title><g id="Layer_2" data-name="Layer 2"><g id="acercade2"><path id="Forma_1" data-name="Forma 1" class="cls-1" d="M73.1,21H32.7a2.08,2.08,0,0,0-1.91,2.21v6.64H27.92a2.24,2.24,0,0,0,0,4.42h2.87v4.43H27.92a2.24,2.24,0,0,0,0,4.43h2.87v4.43H27.92a2.24,2.24,0,0,0,0,4.42h2.87v6.64a2.1,2.1,0,0,0,1.91,2.22H73.1A2.1,2.1,0,0,0,75,58.59h0V23.18A2.08,2.08,0,0,0,73.1,21Zm-2,35.94H34V53h1a1.95,1.95,0,0,0,0-3.89H34V45.25h1a1.94,1.94,0,0,0,0-3.88H34V37.48h1a1.95,1.95,0,0,0,0-3.89H34V29.71H71.13V56.92Zm-12-37.38-4.63-4.62a1.06,1.06,0,0,0-.77-.32,1.1,1.1,0,0,0-.78.32l-1.55,1.55A25.14,25.14,0,0,0,29.65,13l6.11-6.11a3.56,3.56,0,1,0-2.07-2.07L22.36,16.18l-1.28-1.27a1.09,1.09,0,0,0-1.54,0h0L14.9,19.53a1.11,1.11,0,0,0,0,1.55l1.28,1.28L4.86,33.69a3.5,3.5,0,0,0-1.28-.24A3.58,3.58,0,1,0,7.15,37a3.49,3.49,0,0,0-.23-1.28L13,29.65a25.23,25.23,0,0,0,3.42,21.78L14.91,53a1.09,1.09,0,0,0,0,1.54h0l4.62,4.62a1.11,1.11,0,0,0,1.55,0l4.62-4.62a1.1,1.1,0,0,0,0-1.55h0l-4.62-4.63a1.09,1.09,0,0,0-1.53,0h0l-1,1a22.24,22.24,0,0,1,0-24.58l1,1a1.09,1.09,0,0,0,1.54,0h0l4.62-4.63a1.09,1.09,0,0,0,0-1.55h0l-1-1a22.25,22.25,0,0,1,24.59,0l-1,1a1.09,1.09,0,0,0,0,1.55L53,25.71a1.14,1.14,0,0,0,.78.32,1.1,1.1,0,0,0,.77-.32l4.63-4.63a1.09,1.09,0,0,0,0-1.54Z"/></g></g></svg>