<?xml version="1.0" encoding="utf-8"?>
<!-- Generator: Adobe Illustrator 23.0.0, SVG Export Plug-In . SVG Version: 6.00 Build 0)  -->
<svg version="1.1" id="Layer_1" xmlns="http://www.w3.org/2000/svg" xmlns:xlink="http://www.w3.org/1999/xlink" x="0px" y="0px"
	 viewBox="0 0 51 51" style="enable-background:new 0 0 51 51;" xml:space="preserve">
<style type="text/css">
	.st0{fill-rule:evenodd;clip-rule:evenodd;fill:#305B64;}
</style>
<title>ln</title>
<g>
	<g id="contact">
		<path id="Forma_1" class="st0" d="M17.4,41h-6.6V17.7h6.6V41z M14.3,16.2c-1.8,0-3.1-1.4-3.2-3c0-1.8,1.4-3.1,3-3.2
			c1.7-0.1,3.1,1.4,3.2,3c0,0,0,0,0,0.1l0,0C17.4,14.9,16,16.2,14.3,16.2z M40.2,41h-6.6V26.7c0-1.7-0.5-2.9-2.5-2.9
			c-1.9-0.1-3.5,1-4.1,2.9V41h-6.6V17.7H27v2.2c1.9-1.5,4.2-2.2,6.5-2.2c2.1,0,6.6,1.4,6.6,9.2L40.2,41z"/>
	</g>
</g>
</svg>
