<?xml version="1.0" encoding="utf-8"?>
<!-- Generator: Adobe Illustrator 23.0.0, SVG Export Plug-In . SVG Version: 6.00 Build 0)  -->
<svg version="1.1" id="Layer_1" xmlns="http://www.w3.org/2000/svg" xmlns:xlink="http://www.w3.org/1999/xlink" x="0px" y="0px"
	 viewBox="0 0 51 51" style="enable-background:new 0 0 51 51;" xml:space="preserve">
<style type="text/css">
	.st0{fill:#305B64;}
	.st1{fill-rule:evenodd;clip-rule:evenodd;fill:#FFFFFF;}
</style>
<title>ln</title>
<ellipse class="st0" cx="25.5" cy="25.5" rx="25" ry="24.8"/>
<path id="Forma_1" class="st1" d="M18.2,38.8h-6V17.2h6V38.8z M15.4,15.9c-1.6,0-2.9-1.2-2.9-2.8c0-1.6,1.2-2.9,2.8-2.9
	s2.9,1.2,2.9,2.8c0,0,0,0,0,0.1l0,0C18.2,14.6,17,15.9,15.4,15.9z M39.3,38.8h-6V25.5c0-1.6-0.4-2.7-2.3-2.7c-1.7-0.1-3.3,1-3.7,2.7
	v13.3h-6V17.2h6v2.1c1.7-1.3,3.8-2.1,6-2.1c1.9,0,6,1.2,6,8.4L39.3,38.8z"/>
</svg>
