<svg xmlns="http://www.w3.org/2000/svg" viewBox="0 0 348.7 148.36"><defs><style>.cls-1{fill:#000;}</style></defs><title>logosoliasq_3</title><g id="Layer_2" data-name="Layer 2"><g id="Layer_1-2" data-name="Layer 1"><path class="cls-1" d="M190.76,104.66A62.31,62.31,0,0,1,200,104c6.26,0,10.71,1.45,13.66,4.2s4.75,6.65,4.75,12.1-1.7,10-4.86,13.1-8.35,4.85-14.9,4.85a70.21,70.21,0,0,1-7.9-.4Zm4.35,29.8a27.47,27.47,0,0,0,4.4.25c9.3,0,14.36-5.2,14.36-14.3,0-8-4.46-13-13.66-13a24.72,24.72,0,0,0-5.1.45Z"/><path class="cls-1" d="M226.56,126.61c.1,6,3.9,8.4,8.3,8.4a15.91,15.91,0,0,0,6.7-1.25l.75,3.15a19.6,19.6,0,0,1-8.05,1.5c-7.45,0-11.9-4.9-11.9-12.2s4.3-13,11.35-13c7.9,0,10,7,10,11.4a16.6,16.6,0,0,1-.15,2Zm12.9-3.15c0-2.8-1.15-7.15-6.1-7.15-4.45,0-6.4,4.1-6.75,7.15Z"/><path class="cls-1" d="M248.56,133.41a11.53,11.53,0,0,0,5.8,1.75c3.2,0,4.7-1.6,4.7-3.6s-1.25-3.25-4.5-4.45c-4.35-1.55-6.4-4-6.4-6.85,0-3.9,3.15-7.1,8.35-7.1a12.08,12.08,0,0,1,5.95,1.5l-1.1,3.2a9.42,9.42,0,0,0-4.95-1.4c-2.6,0-4.05,1.5-4.05,3.3,0,2,1.45,2.9,4.6,4.1,4.2,1.6,6.35,3.7,6.35,7.3,0,4.25-3.3,7.25-9.05,7.25a13.8,13.8,0,0,1-6.8-1.65Z"/><path class="cls-1" d="M269,137.91v-24.2h4.4v24.2Z"/><path class="cls-1" d="M301.51,113.71c-.1,1.75-.2,3.7-.2,6.65v14c0,5.55-1.1,9-3.45,11.05s-5.75,2.9-8.8,2.9a15.62,15.62,0,0,1-8.05-2l1.1-3.35a13.65,13.65,0,0,0,7.1,1.9c4.5,0,7.8-2.35,7.8-8.45v-2.7h-.1a8.64,8.64,0,0,1-7.7,4.05c-6,0-10.3-5.1-10.3-11.8,0-8.2,5.35-12.85,10.9-12.85a8,8,0,0,1,7.55,4.2h.1l.2-3.65ZM297,123.26a6.27,6.27,0,0,0-.25-2,6.34,6.34,0,0,0-6.15-4.65c-4.2,0-7.2,3.55-7.2,9.15,0,4.75,2.4,8.7,7.15,8.7a6.43,6.43,0,0,0,6.1-4.5,7.66,7.66,0,0,0,.35-2.35Z"/><path class="cls-1" d="M308.31,120.26c0-2.5-.05-4.55-.2-6.55H312l.25,4h.1a8.9,8.9,0,0,1,8-4.55c3.35,0,8.55,2,8.55,10.3v14.45h-4.4V124c0-3.9-1.45-7.15-5.6-7.15a6.25,6.25,0,0,0-5.9,4.5,6.33,6.33,0,0,0-.3,2v14.55h-4.4Z"/><path class="cls-1" d="M2.64,72.48a37,37,0,0,0,18.72,5.28C32,77.76,38.28,72.12,38.28,64,38.28,56.4,34,52.08,23,47.88,9.84,43.2,1.68,36.36,1.68,25c0-12.6,10.44-22,26.16-22,8.28,0,14.28,1.92,17.88,4l-2.88,8.52a32.21,32.21,0,0,0-15.36-3.84c-11,0-15.24,6.6-15.24,12.12,0,7.56,4.92,11.28,16.08,15.6C42,44.64,49,51.24,49,63.12,49,75.6,39.72,86.4,20.64,86.4c-7.8,0-16.32-2.28-20.64-5.16Z"/><path class="cls-1" d="M116.16,55.68c0,21.48-14.88,30.84-28.92,30.84C71.52,86.52,59.4,75,59.4,56.64,59.4,37.2,72.12,25.8,88.2,25.8,104.88,25.8,116.16,37.92,116.16,55.68Zm-46.08.6C70.08,69,77.4,78.6,87.72,78.6c10.08,0,17.64-9.48,17.64-22.56,0-9.84-4.92-22.32-17.4-22.32S70.08,45.24,70.08,56.28Z"/><path class="cls-1" d="M129.48,0H140V85.2H129.48Z"/><path class="cls-1" d="M157.8,85.2V25.8h10.56V85.2Z"/><path class="cls-1" d="M226.5,25.82v6a27.51,27.51,0,0,0-17.79-6c-16.08,0-28.8,11.4-28.8,30.84,0,18.36,12.12,29.88,27.84,29.88A29.29,29.29,0,0,0,226.5,80v5.2h10.56V25.82Zm-18.27,52.8c-10.32,0-17.64-9.6-17.64-22.32,0-11,5.4-22.56,17.88-22.56s17.4,12.48,17.4,22.32C225.87,69.14,218.31,78.62,208.23,78.62Z"/><path class="cls-1" d="M248.28,74.4a27.68,27.68,0,0,0,13.92,4.2c7.68,0,11.28-3.84,11.28-8.64,0-5-3-7.8-10.8-10.68-10.44-3.72-15.36-9.48-15.36-16.44,0-9.36,7.56-17,20-17a29,29,0,0,1,14.28,3.6L279,37.08a22.53,22.53,0,0,0-11.87-3.36c-6.24,0-9.72,3.6-9.72,7.92,0,4.8,3.48,7,11,9.84,10.08,3.84,15.23,8.88,15.23,17.52,0,10.2-7.91,17.4-21.71,17.4a33.12,33.12,0,0,1-16.32-4Z"/><path class="cls-1" d="M338.14,25.82v5.82a27.56,27.56,0,0,0-17.57-5.82c-16.08,0-28.8,11.4-28.8,30.84,0,18.36,12.12,29.88,27.84,29.88a29.43,29.43,0,0,0,18.53-6.33v57.67H348.7V25.82Zm-18.05,52.8c-10.32,0-17.64-9.6-17.64-22.32,0-11,5.4-22.56,17.88-22.56s17.4,12.48,17.4,22.32C337.73,69.14,330.17,78.62,320.09,78.62Z"/></g></g></svg>