<?xml version="1.0" encoding="utf-8"?>
<!-- Generator: Adobe Illustrator 23.0.0, SVG Export Plug-In . SVG Version: 6.00 Build 0)  -->
<svg version="1.1" id="Layer_1" xmlns="http://www.w3.org/2000/svg" xmlns:xlink="http://www.w3.org/1999/xlink" x="0px" y="0px"
	 viewBox="0 0 51 51" style="enable-background:new 0 0 51 51;" xml:space="preserve">
<style type="text/css">
	.st0{display:none;fill:#305B64;}
	.st1{fill:#305B64;}
</style>
<title>pin</title>
<ellipse class="st0" cx="25.5" cy="25.5" rx="25" ry="24.8"/>
<path class="st1" d="M26,5.7c-10.9,0-16.7,7-16.7,14.6c0,3.5,2,8,5.2,9.4c0.9,0.4,0.8-0.1,1.6-3.1c0.1-0.2,0-0.5-0.2-0.7
	C11.4,20.6,15,9.9,25.4,9.9c15,0,12.2,20.9,2.6,20.9c-2.5,0-4.4-2-3.8-4.4c0.7-2.9,2.1-6,2.1-8.1c0-5.2-7.7-4.5-7.7,2.5
	c0,2.1,0.8,3.6,0.8,3.6s-2.5,10.2-3,12c-0.8,3.2,0.1,8.4,0.2,8.9c0,0.2,0.3,0.3,0.5,0.1c0.2-0.3,3.3-4.7,4.1-7.8
	c0.3-1.1,1.6-5.8,1.6-5.8c0.8,1.5,3.3,2.8,5.8,2.8c7.6,0,13.1-6.7,13.1-15C41.4,11.6,34.7,5.7,26,5.7L26,5.7z"/>
</svg>
