<?xml version="1.0" encoding="utf-8"?>
<!-- Generator: Adobe Illustrator 23.0.0, SVG Export Plug-In . SVG Version: 6.00 Build 0)  -->
<svg version="1.1" id="Layer_1" xmlns="http://www.w3.org/2000/svg" xmlns:xlink="http://www.w3.org/1999/xlink" x="0px" y="0px"
	 viewBox="0 0 51 51" style="enable-background:new 0 0 51 51;" xml:space="preserve">
<style type="text/css">
	.st0{fill:#305B64;}
	.st1{fill:#FFFFFF;}
</style>
<title>pin</title>
<ellipse class="st0" cx="25.5" cy="25.5" rx="25" ry="24.8"/>
<path class="st1" d="M25.9,10.3c-8.4,0-12.8,5.3-12.8,11.2c0,2.7,1.5,6.1,4,7.1c0.7,0.3,0.6-0.1,1.2-2.4c0.1-0.2,0-0.4-0.2-0.5
	c-3.4-4-0.7-12.2,7.3-12.2c11.5,0,9.3,16,2,16c-1.9,0-3.3-1.5-2.9-3.3c0.5-2.2,1.6-4.6,1.6-6.2c0-4-5.9-3.4-5.9,1.9
	c0,1.6,0.6,2.7,0.6,2.7s-1.9,7.8-2.3,9.1c-0.6,2.4,0.1,6.4,0.2,6.8c0,0.2,0.2,0.2,0.4,0.1c0.2-0.2,2.5-3.6,3.1-5.9
	c0.2-0.8,1.2-4.4,1.2-4.4c0.6,1.1,2.5,2.1,4.4,2.1c5.9,0,10-5.1,10-11.5C37.8,14.9,32.6,10.3,25.9,10.3L25.9,10.3z"/>
</svg>
