<?xml version="1.0" encoding="utf-8"?>
<!-- Generator: Adobe Illustrator 23.0.0, SVG Export Plug-In . SVG Version: 6.00 Build 0)  -->
<svg version="1.1" id="Layer_1" focusable="false" xmlns="http://www.w3.org/2000/svg" xmlns:xlink="http://www.w3.org/1999/xlink"
	 x="0px" y="0px" viewBox="0 0 51 51" style="enable-background:new 0 0 51 51;" xml:space="preserve">
<style type="text/css">
	.st0{fill:#305B64;}
</style>
<path class="st0" d="M41.8,13.6l-5.3,24.7c-0.4,1.8-1.4,2.2-2.9,1.4l-8-5.9l-3.9,3.7c-0.4,0.4-0.8,0.8-1.6,0.8l0.6-8.1l14.8-13.4
	c0.6-0.6-0.1-0.9-1-0.3L16.3,28l-7.9-2.5C6.7,25,6.6,23.8,8.7,23l30.8-11.9C41,10.6,42.3,11.4,41.8,13.6z"/>
<path class="st0" d="M369.5,20.2c-10.9,0-16.7,7-16.7,14.6c0,3.5,2,8,5.2,9.4c0.9,0.4,0.8-0.1,1.6-3.1c0.1-0.2,0-0.5-0.2-0.7
	c-4.5-5.3-0.9-16,9.5-16c15,0,12.2,20.9,2.6,20.9c-2.5,0-4.4-2-3.8-4.4c0.7-2.9,2.1-6,2.1-8.1c0-5.2-7.7-4.5-7.7,2.5
	c0,2.1,0.8,3.6,0.8,3.6s-2.5,10.2-3,12c-0.8,3.2,0.1,8.4,0.2,8.9c0,0.2,0.3,0.3,0.5,0.1c0.2-0.3,3.3-4.7,4.1-7.8
	c0.3-1.1,1.6-5.8,1.6-5.8c0.8,1.5,3.3,2.8,5.8,2.8c7.6,0,13.1-6.7,13.1-15C384.9,26.1,378.2,20.2,369.5,20.2L369.5,20.2z"/>
<path class="st0" d="M93.2,25.8c-10.9,0-16.7,7-16.7,14.6c0,3.5,2,8,5.2,9.4c0.9,0.4,0.8-0.1,1.6-3.1c0.1-0.2,0-0.5-0.2-0.7
	c-4.5-5.3-0.9-16,9.5-16c15,0,12.2,20.9,2.6,20.9c-2.5,0-4.4-2-3.8-4.4c0.7-2.9,2.1-6,2.1-8.1c0-5.2-7.7-4.5-7.7,2.5
	c0,2.1,0.8,3.6,0.8,3.6s-2.5,10.2-3,12c-0.8,3.2,0.1,8.4,0.2,8.9c0,0.2,0.3,0.3,0.5,0.1c0.2-0.3,3.3-4.7,4.1-7.8
	c0.3-1.1,1.6-5.8,1.6-5.8c0.8,1.5,3.3,2.8,5.8,2.8c7.6,0,13.1-6.7,13.1-15C108.6,31.7,101.9,25.8,93.2,25.8L93.2,25.8z"/>
</svg>
