<?xml version="1.0" encoding="utf-8"?>
<!-- Generator: Adobe Illustrator 23.0.0, SVG Export Plug-In . SVG Version: 6.00 Build 0)  -->
<svg version="1.1" id="Layer_1" xmlns="http://www.w3.org/2000/svg" xmlns:xlink="http://www.w3.org/1999/xlink" x="0px" y="0px"
	 viewBox="0 0 11 11" style="enable-background:new 0 0 11 11;" xml:space="preserve">
<style type="text/css">
	.st0{fill:#FFFFFF;}
</style>
<path class="st0" d="M10.7,0.3C10.6,0.1,10.4,0,10.1,0C9.9,0,9.7,0.1,9.5,0.3l-4,4l-4-4C1.3,0.1,1.1,0,0.9,0C0.6,0,0.4,0.1,0.3,0.3
	C0.1,0.4,0,0.6,0,0.9c0,0.2,0.1,0.5,0.3,0.6l4,4l-4,4C0.1,9.7,0,9.9,0,10.1c0,0.2,0.1,0.5,0.3,0.6C0.4,10.9,0.6,11,0.9,11
	c0.2,0,0.5-0.1,0.6-0.3l4-4l4,4c0.2,0.2,0.4,0.3,0.6,0.3c0.2,0,0.5-0.1,0.6-0.3c0.2-0.2,0.3-0.4,0.3-0.6c0-0.2-0.1-0.5-0.3-0.6l-4-4
	l4-4C10.9,1.3,11,1.1,11,0.9C11,0.6,10.9,0.4,10.7,0.3z"/>
</svg>
