<svg xmlns="http://www.w3.org/2000/svg" width="51.088" height="61.15" viewBox="0 0 510.875 611.5">
  <defs>
    <style>
      .cls-1 {
        fill: #305b64;
        fill-rule: evenodd;
      }
    </style>
  </defs>
  <path id="Forma_1" data-name="Forma 1" class="cls-1" d="M508.777,333.247L270.914,0.571,270.852,280.79a62.793,62.793,0,0,1,28.878,15.891,59.727,59.727,0,0,1,18.51,43.274c0,33.624-28.154,60.989-62.744,61H255.48c-34.585,0-62.724-27.362-62.724-60.985,0.008-28.457,20.163-52.424,47.32-59.134L240.135,0.5,2.214,333.243a11.556,11.556,0,0,0,4.373,17.109c0.3,0.147,30.415,14.94,59.995,46.73,36.569,39.3,56.313,86,58.8,138.949H91.658a11.544,11.544,0,0,0-11.542,11.542v53.385A11.543,11.543,0,0,0,91.658,612.5H419.336a11.541,11.541,0,0,0,11.542-11.542V547.573a11.543,11.543,0,0,0-11.542-11.542H385.612c2.491-52.952,22.235-99.653,58.8-138.947,29.582-31.79,59.693-46.583,59.977-46.72A11.541,11.541,0,0,0,508.777,333.247Z" transform="translate(-0.063 -0.5)"/>
</svg>
