<?xml version="1.0" encoding="utf-8"?>
<!-- Generator: Adobe Illustrator 23.0.0, SVG Export Plug-In . SVG Version: 6.00 Build 0)  -->
<svg version="1.1" id="Layer_1" xmlns="http://www.w3.org/2000/svg" xmlns:xlink="http://www.w3.org/1999/xlink" x="0px" y="0px"
	 viewBox="0 0 50 51.2" style="enable-background:new 0 0 50 51.2;" xml:space="preserve">
<style type="text/css">
	.st0{clip-path:url(#SVGID_2_);}
	.st1{fill:#305B64;}
</style>
<title>tw</title>
<g>
	<g id="contact">
		<g id="twitter-logo-button.psd">
			<g>
				<defs>
					<rect id="SVGID_1_" x="0" y="0" width="50" height="51.2"/>
				</defs>
				<clipPath id="SVGID_2_">
					<use xlink:href="#SVGID_1_"  style="overflow:visible;"/>
				</clipPath>
				<g class="st0">
					<g id="Forma_1">
						<path class="st1" d="M36.1,19.7c0,0.3,0,0.5,0,0.8c0,7.8-5.8,16.8-16.4,16.8c-3.1,0-6.2-0.9-8.8-2.7c0.5,0.1,0.9,0.1,1.4,0.1
							c2.6,0,5.1-0.9,7.1-2.5c-2.5-0.1-4.7-1.7-5.4-4.1c0.4,0.1,0.7,0.1,1.1,0.1c0.5,0,1-0.1,1.5-0.2c-2.7-0.6-4.6-3-4.6-5.8v-0.1
							c0.8,0.5,1.7,0.7,2.6,0.7c-1.6-1.1-2.6-2.9-2.6-4.9c0-1.1,0.3-2.1,0.8-3c2.9,3.7,7.2,5.9,11.9,6.2c-0.1-0.4-0.2-0.9-0.1-1.3
							c0-3.2,2.5-5.9,5.7-5.9c0,0,0,0,0,0c1.6,0,3.1,0.7,4.2,1.9c1.3-0.3,2.5-0.7,3.7-1.4c-0.4,1.4-1.3,2.5-2.5,3.3
							c1.1-0.1,2.2-0.4,3.3-0.9C38.2,17.9,37.3,18.9,36.1,19.7z"/>
					</g>
				</g>
			</g>
		</g>
	</g>
</g>
</svg>
