<svg xmlns="http://www.w3.org/2000/svg" xmlns:xlink="http://www.w3.org/1999/xlink" viewBox="0 0 49.99 51.22"><defs><style>.cls-1{fill:none;}.cls-2{clip-path:url(#clip-path);}.cls-3{fill:#305b64;}</style><clipPath id="clip-path" transform="translate(-0.01 -0.01)"><rect class="cls-1" width="50" height="51.23"/></clipPath></defs><title>tw</title><g id="Layer_2" data-name="Layer 2"><g id="contact"><g id="twitter-logo-button.psd"><g class="cls-2"><g id="Forma_1" data-name="Forma 1"><path class="cls-3" d="M25,0C11.22,0,0,11.49,0,25.61S11.22,51.22,25,51.22,50,39.73,50,25.61,38.78,0,25,0ZM36.15,19.75c0,.26,0,.51,0,.77,0,7.79-5.79,16.77-16.37,16.77A16,16,0,0,1,11,34.64a12.44,12.44,0,0,0,1.37.08A11.38,11.38,0,0,0,19.5,32.2a5.78,5.78,0,0,1-5.38-4.1,5.49,5.49,0,0,0,1.08.11A5.42,5.42,0,0,0,16.72,28a5.85,5.85,0,0,1-4.61-5.77v-.08a5.61,5.61,0,0,0,2.6.74A6,6,0,0,1,12.15,18a6,6,0,0,1,.78-3,16.22,16.22,0,0,0,11.86,6.16,5.92,5.92,0,0,1-.15-1.34,5.82,5.82,0,0,1,5.75-5.9,5.7,5.7,0,0,1,4.2,1.86,11.13,11.13,0,0,0,3.65-1.43,5.87,5.87,0,0,1-2.53,3.26A11.44,11.44,0,0,0,39,16.71,11.87,11.87,0,0,1,36.15,19.75Z" transform="translate(-0.01 -0.01)"/></g></g></g></g></g></svg>