<svg xmlns="http://www.w3.org/2000/svg" width="44.995" height="43.121" viewBox="0 0 99 94.875">
  <defs>
    <style>
      .cls-1 {
        fill: #305b64;
        fill-rule: evenodd;
      }
    </style>
  </defs>
  <path id="Forma_1" data-name="Forma 1" class="cls-1" d="M63.924,92.264a4.9,4.9,0,0,1-1.918-3.193l-0.649-4.161H40.642L39.99,89.069a4.888,4.888,0,0,1-1.914,3.195c-1.732,1.276-3.1,2.371-1.732,2.557,1.317,0.178,13.74.016,14.656,0,0.918,0.016,13.338.178,14.655,0C67.021,94.637,65.653,93.544,63.924,92.264ZM27.666,59.028c5.534-.043,6.223-1.379,8.027-6.942,3.327-8.78,18.309,2.3,9.024,6.144S22.132,59.071,27.666,59.028ZM84.41,1.168C81.724-1,77.276.069,74.474,3.551L46.082,43.942c-2.8,3.482-2.789,2.817-.1,4.982s2.038,2.323,4.841-1.16L84.2,11.4C87,7.913,87.095,3.334,84.41,1.168ZM77.11,6a15.4,15.4,0,0,0-1.8-1.591c2.073-3.391,6.149-2.77,6.149-2.77C77.595,3.927,77.11,6,77.11,6ZM97,14.816H84.515L79,20.825H95V68.889H7V20.825H58.192l4.226-6.008H5a4,4,0,0,0-4,4.005V76.9a4,4,0,0,0,4,4.005H97a4,4,0,0,0,4-4.005V18.822A4,4,0,0,0,97,14.816Z" transform="translate(-1 -0.031)"/>
</svg>
